<svg width="44" height="45" viewBox="0 0 44 45" fill="none" xmlns="http://www.w3.org/2000/svg">
<path d="M6.52194 1.06098C3.49616 1.74006 1.29559 3.76011 0.281272 6.78588L0.0319887 7.51654L0.00620078 22.6025C-0.0109911 33.313 0.00620078 37.8345 0.0749685 38.2041C0.685282 41.5308 3.21249 44.1181 6.54773 44.823C7.42452 45.0121 36.5648 45.0121 37.4416 44.823C40.7768 44.1181 43.3041 41.5308 43.9144 38.2041C43.9831 37.8345 44.0003 33.313 43.9831 22.6454C43.9573 8.53946 43.9488 7.56812 43.8026 7.09534C42.8829 4.02658 40.9144 2.05811 37.8456 1.13834C37.3728 0.99221 36.4187 0.983612 22.1666 0.966423C10.4503 0.957825 6.88297 0.983612 6.52194 1.06098ZM28.0548 8.19563C29.1121 8.71998 29.8342 9.66553 30.0749 10.8604C30.1952 11.4707 30.1522 11.8575 29.903 12.2013C29.3872 12.932 28.3127 12.8718 27.8399 12.0982C27.7454 11.9435 27.668 11.7028 27.668 11.5652C27.668 11.4277 27.5906 11.144 27.4961 10.9463C27.1952 10.3274 26.4302 10.1211 25.8543 10.5079C25.4417 10.783 25.3385 11.0409 25.3643 11.6512C25.4159 12.485 25.6394 12.7429 26.9545 13.4993C28.4244 14.3503 28.966 14.7715 29.3786 15.3904C30.8657 17.6254 29.9631 20.5996 27.5649 21.3217C25.8113 21.8546 23.9975 21.0466 23.1981 19.379C22.8199 18.5881 22.7425 17.6426 23.0176 17.2042C23.3958 16.6111 24.0577 16.4306 24.6594 16.7658C25.0634 16.9893 25.2525 17.3245 25.3213 17.8919C25.3643 18.2701 25.4331 18.4076 25.6909 18.6655C25.9746 18.9492 26.0692 18.9921 26.413 18.9921C27.3328 18.9921 27.8313 18.2959 27.582 17.3503C27.4101 16.7228 27.1437 16.4735 25.8886 15.7515C25.201 15.3561 24.4961 14.8747 24.1866 14.591C22.519 13.0437 22.3987 10.4134 23.9288 8.8833C24.7024 8.10966 25.5448 7.80021 26.7053 7.85178C27.3242 7.87757 27.5219 7.92915 28.0548 8.19563ZM12.1093 8.25579C12.9259 8.65121 13.4847 9.20995 13.8973 10.0438L14.2153 10.6885V11.8919C14.2153 13.0781 14.2067 13.1125 13.9317 13.697L13.6566 14.2902L13.9918 14.6512C14.6623 15.3733 14.946 16.1985 14.946 17.4019C14.946 18.7257 14.6193 19.5939 13.8113 20.3847C13.5792 20.6082 13.1322 20.9176 12.8142 21.0724L12.2383 21.356L10.0463 21.3818C7.97466 21.399 7.83712 21.399 7.57065 21.2271C7.41592 21.1325 7.21821 20.9348 7.12366 20.7801C6.96033 20.505 6.95174 20.3331 6.95174 14.6942C6.95174 8.21281 6.92595 8.51368 7.55345 8.09247C7.84572 7.89476 7.8887 7.89476 9.65946 7.92055L11.4646 7.94634L12.1093 8.25579ZM21.1179 8.0237C21.5649 8.25579 21.7626 8.55666 21.797 9.03803C21.8228 9.39046 21.7884 9.56238 21.6594 9.76868C21.35 10.2587 21.1179 10.3532 20.0434 10.3876L19.072 10.4134V11.9091V13.4048H19.6136C20.5334 13.4048 21.1351 13.8947 21.1351 14.6426C21.1351 15.4248 20.5677 15.8976 19.6566 15.8976H19.072V17.3933V18.889L20.0004 18.9234C21.0405 18.9578 21.3844 19.0867 21.6508 19.5337C21.9861 20.0752 21.797 20.9005 21.264 21.2271C21.0061 21.3818 20.8428 21.399 19.2354 21.399C17.2153 21.399 17.052 21.3474 16.7511 20.6856C16.5878 20.3417 16.5792 20.058 16.5792 14.6426V8.96066L16.7769 8.59104C17.1122 7.95494 17.3013 7.90336 19.2268 7.90336C20.4818 7.90336 20.946 7.92915 21.1179 8.0237ZM37.1322 8.10107C37.2955 8.20422 37.4932 8.42772 37.5705 8.59104C38.0347 9.51081 37.3385 10.3962 36.1608 10.3962H35.6622V15.399C35.6622 19.9979 35.6536 20.4363 35.5075 20.7113C35.0519 21.6225 33.7797 21.6225 33.3241 20.7113C33.178 20.4363 33.1694 19.9979 33.1694 15.399V10.3962H32.6795C31.9316 10.3876 31.4846 10.1555 31.2611 9.65694C30.9689 8.98645 31.1752 8.36754 31.8027 8.05809C32.0605 7.92055 32.3786 7.90336 34.4674 7.90336C36.7883 7.90336 36.8485 7.90336 37.1322 8.10107ZM28.1408 24.5279C29.3442 24.846 30.221 25.6798 30.6422 26.9004C30.7969 27.3474 30.8055 27.6827 30.8055 32.2729V37.1726L30.6164 37.4391C30.0663 38.2041 28.9316 38.1268 28.5104 37.2929C28.3815 37.0437 28.3557 36.7514 28.3557 35.3675C28.3557 33.9491 28.3385 33.6912 28.201 33.442C27.8141 32.7285 26.817 32.6339 26.2497 33.2614C26.0949 33.4334 26.0778 33.6053 26.0348 35.2729C25.9832 37.3187 25.9316 37.5164 25.3299 37.8259C24.7712 38.1096 24.2554 38.0064 23.7998 37.5164L23.5849 37.2844V32.2041V27.1153L23.8686 26.5136C24.1609 25.8947 24.7368 25.2242 25.2439 24.9062C25.9832 24.4506 27.2382 24.2873 28.1408 24.5279ZM12.1007 24.6569C13.4245 25.0695 14.456 26.1612 14.8256 27.5451C15.0062 28.1984 14.9976 34.2414 14.817 34.9205C14.5248 36.0465 13.7941 36.9835 12.8228 37.4993C11.9546 37.9462 11.542 38.0064 9.51333 37.972C7.8801 37.9462 7.71678 37.9291 7.49328 37.7657C6.93455 37.3531 6.95174 37.611 6.95174 31.1984C6.95174 25.5595 6.96033 25.3875 7.12366 25.1125C7.47609 24.5365 7.63941 24.4936 9.71964 24.4936C11.3013 24.4936 11.6537 24.5194 12.1007 24.6569ZM21.2554 24.6569C22.0376 25.1726 22.0119 26.3589 21.2038 26.7887C20.9975 26.8918 20.6537 26.9434 20.0004 26.9692L19.072 27.0036V28.4993V29.995H19.6566C20.5677 29.995 21.1351 30.4678 21.1351 31.25C21.1351 31.9978 20.5334 32.4878 19.6136 32.4878H19.072V33.9921V35.4964H19.9574C20.9718 35.4964 21.3156 35.6167 21.6336 36.0981C22.0462 36.7084 21.754 37.611 21.0491 37.9033C20.8944 37.9634 20.2411 37.9892 19.1064 37.972C17.1723 37.9462 17.0778 37.9119 16.7511 37.25C16.5878 36.9147 16.5792 36.7428 16.5792 31.2328C16.5792 25.8345 16.5878 25.5509 16.7511 25.207C17.052 24.5451 17.2153 24.4936 19.244 24.4936C20.8256 24.4936 21.0319 24.5108 21.2554 24.6569ZM35.0433 24.6655C35.1981 24.76 35.3958 24.9577 35.4903 25.1125C35.6536 25.3875 35.6622 25.5595 35.6622 30.4334V35.4706L36.2983 35.5136C37.029 35.5652 37.3642 35.7457 37.5963 36.2356C37.8628 36.803 37.6565 37.4821 37.0978 37.8259C36.8485 37.9806 36.6938 37.9892 35.4044 37.972C34.0978 37.9462 33.9688 37.9291 33.7196 37.7571C33.1522 37.3531 33.1694 37.5766 33.1694 31.2242C33.1694 25.9291 33.178 25.4563 33.3241 25.1812C33.6422 24.5451 34.4502 24.3045 35.0433 24.6655Z" fill="white"/>
<path d="M9.44531 11.9949V13.5938L9.686 13.5336C9.81494 13.4992 10.176 13.4476 10.4854 13.4132C11.4654 13.3101 11.7662 12.9491 11.7662 11.8574C11.7662 10.7313 11.4052 10.3961 10.2018 10.3961H9.44531V11.9949Z" fill="white"/>
<path d="M10.0728 16.0266C9.55706 16.2501 9.44531 16.5681 9.44531 17.806V18.9062H10.5456C11.7662 18.9062 11.9553 18.8461 12.2562 18.3991C12.4195 18.1584 12.4539 17.9951 12.4539 17.4535C12.4539 16.3017 12.0585 15.8977 10.9496 15.8977C10.623 15.9063 10.2189 15.9578 10.0728 16.0266Z" fill="white"/>
<path d="M26.7658 26.9519C26.5767 27.0121 26.4134 27.0723 26.4048 27.0723C26.3962 27.0723 26.3102 27.2012 26.2157 27.3645C26.0523 27.6224 26.0352 27.7857 26.0352 29.0751V30.502L26.3188 30.4419C26.6884 30.3559 27.7286 30.3645 28.081 30.4505L28.3561 30.5278V29.1611C28.3561 28.035 28.3303 27.7513 28.2013 27.5106C27.9263 26.9519 27.3675 26.737 26.7658 26.9519Z" fill="white"/>
<path d="M9.44531 31.2327V35.4963H10.3737C11.5255 35.4963 11.9381 35.3244 12.2562 34.7227C12.4539 34.3531 12.4539 34.3273 12.4539 31.2241C12.4539 28.2757 12.4453 28.078 12.282 27.76C12.1874 27.5795 11.9897 27.3388 11.835 27.227C11.5857 27.0551 11.4396 27.0293 10.5026 27.0035L9.44531 26.9691V31.2327Z" fill="white"/>
</svg>
