<svg width="44" height="45" viewBox="0 0 44 45" fill="none" xmlns="http://www.w3.org/2000/svg">
<path d="M21.1744 0.831966C20.4549 0.957592 20.1123 1.15174 18.3421 2.41941L16.8004 3.51577L14.5163 3.57287C12.3236 3.62997 12.1979 3.65282 11.6498 3.93833C10.976 4.29236 10.2793 4.95475 9.9938 5.51435C9.89102 5.73133 9.54841 6.65639 9.25147 7.57002C8.95454 8.48366 8.60051 9.35161 8.46346 9.50008C8.33784 9.63712 7.61835 10.1967 6.88744 10.7335C4.86603 12.1953 4.40921 12.8463 4.31785 14.3652C4.27216 15.0847 4.32927 15.3588 4.84319 17.0033C5.16296 18.0197 5.42563 18.9676 5.42563 19.1161C5.42563 19.2531 5.16296 20.1782 4.84319 21.1489C4.30643 22.7935 4.26074 22.999 4.30643 23.787C4.36353 24.655 4.58052 25.2603 5.1287 25.9912C5.25432 26.1739 6.07659 26.8363 6.94455 27.4644C7.80108 28.0925 8.58909 28.7435 8.66903 28.9034C8.74897 29.0747 9.05733 29.9427 9.34284 30.8335C10.0737 33.0947 10.4735 33.6429 11.8211 34.2824C12.4149 34.5565 12.5862 34.5794 14.6762 34.6365L16.9032 34.6936L18.3307 35.7328C20.3864 37.2403 20.5577 37.3088 21.8711 37.3088C23.1844 37.3088 23.3557 37.2403 25.4114 35.7328L26.8389 34.6936L29.0659 34.6365C31.1673 34.5794 31.3272 34.5565 31.9325 34.2824C33.2801 33.6429 33.7483 32.9691 34.4906 30.5822C34.719 29.8285 34.9817 29.0747 35.0731 28.9034C35.153 28.7435 35.941 28.0925 36.7976 27.4644C37.6655 26.8363 38.4878 26.1739 38.6134 25.9912C39.1616 25.2603 39.3786 24.655 39.4357 23.787C39.4814 22.999 39.4357 22.7935 38.8989 21.1489C38.5792 20.1782 38.3165 19.2531 38.3165 19.1161C38.3165 18.9676 38.5792 18.0197 38.8989 17.0033C39.4128 15.3588 39.4699 15.0847 39.4243 14.3652C39.3329 12.8463 38.8532 12.161 36.8432 10.7221C36.1123 10.1967 35.4043 9.63712 35.2786 9.50008C35.1416 9.35161 34.7876 8.48366 34.4906 7.57002C33.8282 5.54861 33.6798 5.24026 33.0402 4.64639C32.0809 3.72134 31.8183 3.6414 29.2372 3.57287L26.9417 3.51577L25.4 2.40799C24.5549 1.79128 23.6298 1.19742 23.3443 1.0718C22.7276 0.809128 21.8711 0.717762 21.1744 0.831966ZM22.5334 9.30593C22.6134 9.38587 23.2643 10.5736 23.9496 11.9669C24.6462 13.3488 25.2172 14.4908 25.2287 14.5022C25.2287 14.5136 26.3707 14.6735 27.7526 14.8677C29.1345 15.0732 30.4021 15.256 30.5734 15.2902C31.0531 15.3816 31.4642 15.8727 31.4642 16.3523C31.4642 16.7292 31.3158 16.9119 29.3857 18.842L27.3072 20.9205L27.7868 23.7299C28.2437 26.3338 28.2551 26.5508 28.0952 26.8706C27.6498 27.7271 27.2615 27.6586 24.3493 26.1397L21.8711 24.8491L19.3928 26.1397C17.9196 26.9048 16.7775 27.4416 16.5834 27.4416C16.138 27.4416 15.8525 27.2703 15.6469 26.8706C15.487 26.5508 15.4985 26.3338 15.9553 23.7299L16.4349 20.9205L14.3564 18.842C12.4264 16.9119 12.2779 16.7292 12.2779 16.3523C12.2779 15.8727 12.689 15.3816 13.1687 15.2902C13.34 15.256 14.6077 15.0732 15.9895 14.8791C17.3714 14.6735 18.5134 14.4794 18.5363 14.4451C18.5591 14.3994 19.1416 13.2346 19.8496 11.8527C20.7861 10.0254 21.2087 9.30593 21.4142 9.19173C21.7226 9.03184 22.2708 9.08894 22.5334 9.30593Z" fill="white"/>
<path d="M20.8994 14.5137C20.237 15.8157 19.9058 16.341 19.7003 16.4438C19.5404 16.5123 18.5811 16.695 17.5532 16.8435C16.5368 16.9805 15.7031 17.129 15.7031 17.1633C15.7031 17.1975 16.3427 17.8257 17.1193 18.568C17.9872 19.3788 18.5582 20.0184 18.6039 20.2011C18.6496 20.3724 18.5468 21.3203 18.3755 22.3824C18.2042 23.4102 18.09 24.2782 18.1243 24.3125C18.1585 24.3353 18.9237 23.9698 19.8259 23.4902C20.9679 22.8735 21.5961 22.6108 21.8702 22.6108C22.1557 22.6108 22.7495 22.8621 23.9144 23.4788C24.8166 23.9698 25.5818 24.3353 25.6161 24.301C25.6503 24.2782 25.5361 23.4102 25.3648 22.3824C25.1935 21.3203 25.0907 20.3724 25.1364 20.2011C25.1821 20.0184 25.7531 19.3788 26.6211 18.568C27.3977 17.8257 28.0372 17.1975 28.0372 17.1633C28.0372 17.129 27.2035 16.9805 26.1871 16.8435C25.1592 16.695 24.1999 16.5123 24.04 16.4438C23.8345 16.341 23.5033 15.8157 22.8409 14.5137C22.3384 13.5202 21.9044 12.7093 21.8702 12.7093C21.8359 12.7093 21.4019 13.5202 20.8994 14.5137Z" fill="white"/>
<path d="M2.85511 31.8956L0 34.7507V35.2647C0 35.6529 0.0685226 35.8357 0.285511 36.0527C0.456817 36.224 1.64454 36.7493 3.35761 37.4231C4.88795 38.017 6.17846 38.5423 6.22414 38.5994C6.2584 38.6451 6.77232 39.9242 7.35476 41.4317C7.94862 42.9392 8.53106 44.2868 8.65669 44.4238C8.91936 44.7208 9.5018 44.8578 9.90152 44.7436C10.187 44.6522 17.302 37.6401 17.302 37.4345C17.302 37.3774 17.0621 37.149 16.7538 36.9435L16.217 36.578H14.6067C13.7274 36.578 12.6995 36.5209 12.3226 36.4524C10.7124 36.1669 9.07925 34.9677 8.31408 33.5402C8.11993 33.1633 7.74306 32.1926 7.48039 31.3703C7.02357 29.9085 7.00073 29.8742 6.45255 29.4631C6.14419 29.2347 5.84726 29.0405 5.80158 29.0405C5.74448 29.0405 4.41971 30.331 2.85511 31.8956Z" fill="white"/>
<path d="M37.2641 29.4631C36.7502 29.8628 36.7159 29.9313 36.2591 31.3703C35.9964 32.1926 35.6195 33.1633 35.4254 33.5402C34.6602 34.9677 33.0271 36.1669 31.4168 36.4524C31.0399 36.5209 30.0121 36.578 29.1327 36.578H27.5339L26.9857 36.9435C26.6887 37.149 26.4375 37.3774 26.4375 37.4345C26.4375 37.6287 33.5524 44.6522 33.8379 44.7436C34.2377 44.8578 34.8201 44.7208 35.0828 44.4238C35.2198 44.2868 35.7908 42.962 36.3733 41.4774C36.9443 39.9927 37.4582 38.725 37.5039 38.6451C37.5496 38.5766 38.8401 38.017 40.3819 37.4231C42.1063 36.7493 43.2712 36.224 43.4539 36.0527C43.6709 35.8357 43.7395 35.6529 43.7395 35.2647V34.7507L40.8844 31.8956C39.3198 30.331 37.9836 29.0405 37.915 29.0519C37.8579 29.0519 37.561 29.2461 37.2641 29.4631Z" fill="white"/>
</svg>
