<svg width="17" height="17" viewBox="0 0 17 17" fill="none" xmlns="http://www.w3.org/2000/svg">
<g opacity="0.7">
<path d="M8.4187 6.5935C9.27203 6.6335 9.49203 7.36016 9.50536 7.70016H10.6987C10.6454 6.38016 9.70536 5.5735 8.3987 5.5735C6.92536 5.5735 5.83203 6.50016 5.83203 8.5935C5.83203 9.88683 6.45203 11.4202 8.39203 11.4202C9.87203 11.4202 10.6654 10.3202 10.6854 9.4535H9.49203C9.47203 9.84683 9.19203 10.3735 8.40536 10.4135C7.53203 10.3868 7.16536 9.70683 7.16536 8.5935C7.16536 6.66683 8.0187 6.60683 8.4187 6.5935ZM8.4987 1.8335C4.8187 1.8335 1.83203 4.82016 1.83203 8.50016C1.83203 12.1802 4.8187 15.1668 8.4987 15.1668C12.1787 15.1668 15.1654 12.1802 15.1654 8.50016C15.1654 4.82016 12.1787 1.8335 8.4987 1.8335ZM8.4987 13.8335C5.5587 13.8335 3.16536 11.4402 3.16536 8.50016C3.16536 5.56016 5.5587 3.16683 8.4987 3.16683C11.4387 3.16683 13.832 5.56016 13.832 8.50016C13.832 11.4402 11.4387 13.8335 8.4987 13.8335Z" fill="black"/>
</g>
</svg>
