<svg width="36" height="45" viewBox="0 0 36 45" fill="none" xmlns="http://www.w3.org/2000/svg">
<path d="M13.8445 0.590588C11.4254 0.80581 9.41089 1.13295 7.51694 1.62365C2.11919 3.0269 -0.256858 5.2652 1.31856 7.48628C2.8165 9.59546 8.03347 11.2828 14.4643 11.7391C16.0914 11.851 20.0342 11.851 21.6613 11.7391C28.4881 11.2484 33.9375 9.37163 35.0309 7.1161C36.4427 4.1977 31.441 1.54617 22.7977 0.625024C21.36 0.478673 15.4199 0.452847 13.8445 0.590588Z" fill="white"/>
<path d="M0.803414 8.12328C0.777588 8.16632 0.674281 8.42459 0.588193 8.69146C0.424624 9.14773 0.416016 9.43183 0.416016 12.4708C0.416016 15.4839 0.433233 15.7938 0.579584 16.2414C1.06168 17.6361 2.31857 18.8327 4.48801 19.9605C11.4784 23.5848 24.65 23.5848 31.6404 19.9605C33.8098 18.8327 35.0667 17.6361 35.5488 16.2414C35.6951 15.8024 35.7123 15.4925 35.7123 12.5052C35.7123 9.49209 35.7037 9.21661 35.5402 8.69146C35.3508 8.09745 35.2216 7.92528 35.1442 8.18354C34.774 9.35435 33.8098 10.2411 31.9675 11.0933C26.3373 13.719 15.206 14.2442 7.51833 12.2555C4.83236 11.5668 3.05894 10.7404 1.88813 9.62983C1.45769 9.22521 1.01864 8.5365 1.01864 8.26102C1.01864 8.09745 0.872285 8.00276 0.803414 8.12328Z" fill="white"/>
<path d="M0.700032 19.1943L0.458984 19.7022V23.2749V26.8476L0.79473 27.5277C2.15493 30.2395 6.77789 32.3745 13.0279 33.1751C18.9508 33.9327 25.6485 33.2612 30.1423 31.4619C32.7336 30.4203 34.5845 29.017 35.3249 27.5363L35.6692 26.8476V23.2749V19.7022L35.4282 19.1857L35.1785 18.6692L35.0408 18.8844C34.1541 20.193 32.8111 21.2002 30.6589 22.1558C22.8678 25.6251 9.39498 25.0483 3.29991 20.9936C2.37876 20.3823 1.76753 19.8228 1.31126 19.1943L0.932472 18.6864L0.700032 19.1943Z" fill="white"/>
<path d="M0.700926 30.2911L0.459878 30.8076L0.434051 34.1995C0.408225 37.1696 0.425442 37.643 0.554575 38.0304C1.10554 39.735 2.87036 41.2415 5.71128 42.4296C7.88071 43.3421 10.5495 43.9792 13.8897 44.3838C15.1896 44.5387 20.9404 44.5387 22.2403 44.3838C29.6525 43.4799 34.5682 41.1382 35.5754 38.0304C35.7046 37.643 35.7218 37.1696 35.6959 34.1995L35.6701 30.8076L35.4291 30.2911C35.1966 29.8004 35.1794 29.7832 35.0589 29.9467C34.1463 31.2208 33.01 32.1248 31.2624 32.9684C25.3911 35.8007 15.6373 36.3345 8.2509 34.2339C4.72987 33.2353 2.44852 31.8751 1.07111 29.9467C0.950583 29.7832 0.933365 29.8004 0.700926 30.2911Z" fill="white"/>
</svg>
