<svg width="46" height="45" viewBox="0 0 46 45" fill="none" xmlns="http://www.w3.org/2000/svg">
<path d="M21.6206 0.647301C19.2826 1.25483 16.9445 3.55608 15.26 6.8975C14.5788 8.23222 13.9252 9.87071 14.0357 9.97197C14.1738 10.1008 16.2081 10.736 16.5119 10.736C16.6683 10.7452 17.1746 10.5703 17.6441 10.3586C18.7855 9.8523 19.8717 9.53933 21.1788 9.35523L22.265 9.19875V4.84478C22.265 2.46068 22.2374 0.50002 22.2005 0.509226C22.1545 0.509226 21.8968 0.573661 21.6206 0.647301Z" fill="white"/>
<path d="M23.7363 4.84478V9.19875L24.8225 9.35523C26.1296 9.53933 27.2158 9.8523 28.3572 10.3586C28.8267 10.5703 29.3422 10.7452 29.4895 10.736C29.7932 10.736 31.8275 10.1008 31.9656 9.97197C32.1773 9.77866 30.6309 6.48327 29.6183 4.96445C27.8878 2.39625 26.148 1.03391 23.9941 0.555251L23.7363 0.500021V4.84478Z" fill="white"/>
<path d="M16.4639 1.45767C14.6597 2.02838 12.9016 2.8108 11.4472 3.7221C10.7936 4.12712 9.03546 5.42502 8.45555 5.9313L8.14258 6.20745L8.68567 6.76895C9.4681 7.56058 10.6279 8.40744 11.6773 8.95974L12.5702 9.4292L12.8279 8.75723C13.9233 5.92209 15.258 3.69448 16.8689 2.00076C17.3108 1.53131 17.6237 1.1447 17.5593 1.1447C17.4857 1.1539 16.9978 1.29198 16.4639 1.45767Z" fill="white"/>
<path d="M29.1211 1.99149C30.7503 3.70362 32.0575 5.8852 33.1713 8.75716L33.429 9.41992L34.0826 9.08854C35.1135 8.57306 36.1905 7.81825 37.0374 7.01742C37.47 6.6124 37.8198 6.2534 37.8198 6.21658C37.8198 6.10612 36.1721 4.79901 35.2884 4.20989C34.1838 3.47349 33.1621 2.90278 32.039 2.39651C31.1185 1.98228 29.2499 1.31952 28.6148 1.19065C28.3018 1.12622 28.311 1.14463 29.1211 1.99149Z" fill="white"/>
<path d="M6.50486 7.88253C3.30152 11.5645 1.33165 16.2223 1.02789 20.8524L0.972656 21.7637H5.34503H9.71741L9.78184 21.1377C9.88309 20.1804 10.0948 19.2415 10.4814 18.0356C10.7023 17.3637 10.9325 16.3419 11.0797 15.4122C11.2915 14.1327 11.8898 11.5001 12.0923 10.9846C12.1383 10.865 11.9726 10.7361 11.3099 10.4047C10.1961 9.8432 9.08226 9.06998 7.97766 8.10345C7.4898 7.66161 7.06637 7.31182 7.04796 7.31182C7.02034 7.31182 6.78101 7.56956 6.50486 7.88253Z" fill="white"/>
<path d="M38.0025 8.10345C36.9992 9.00554 35.6092 9.96286 34.5691 10.4783C34.0076 10.7545 33.8603 10.865 33.9063 10.9846C34.1088 11.4909 34.7072 14.1235 34.9189 15.4122C35.0661 16.3235 35.3055 17.3729 35.5172 18.0356C35.9038 19.2415 36.1155 20.1896 36.2168 21.1377L36.2812 21.7637H40.6536H45.026L44.9707 20.8524C44.7314 17.244 43.3967 13.3779 41.3071 10.2574C40.6076 9.21726 39.1532 7.39467 38.9691 7.34864C38.9138 7.33023 38.4812 7.68002 38.0025 8.10345Z" fill="white"/>
<path d="M20.8641 10.8649C19.2164 11.1595 17.4583 11.9051 16.0867 12.89C15.2399 13.5068 13.9051 14.8507 13.3068 15.6976C12.3679 17.0231 11.6407 18.7905 11.3553 20.4381C11.1712 21.4783 11.1805 23.531 11.3553 24.5804C11.7604 26.8816 12.8374 28.9804 14.5035 30.7017C15.5252 31.7511 16.4641 32.4507 17.7068 33.0674C19.4373 33.9327 20.9654 34.2825 22.9997 34.2825C25.5034 34.2825 27.5746 33.6565 29.6733 32.2758C30.5017 31.7235 32.2231 30.0021 32.7754 29.1737C34.1561 27.075 34.7821 25.0038 34.7821 22.5001C34.7821 19.2139 33.6775 16.4984 31.3946 14.188C29.6365 12.4114 27.4825 11.2792 25.0524 10.8557C24.0675 10.6808 21.8306 10.6901 20.8641 10.8649ZM30.1612 15.6423C30.6122 15.8356 31.1737 16.3787 31.3854 16.839C31.6432 17.3821 31.6156 18.2105 31.3302 18.7812C31.008 19.4348 21.3888 29.0356 20.7905 29.3026C20.2106 29.5603 19.4926 29.5511 18.9034 29.275C18.2499 28.962 14.706 25.3812 14.5219 24.8473C14.0156 23.3193 15.0926 21.7729 16.6758 21.7637C16.9704 21.7637 17.357 21.8281 17.5411 21.9017C17.7252 21.9846 18.2959 22.454 18.8114 22.9603C19.3177 23.4666 19.7779 23.8808 19.8239 23.8808C19.8792 23.8808 21.7202 22.0766 23.9202 19.8766C26.9302 16.8758 28.0256 15.8356 28.3386 15.6976C28.8448 15.4674 29.6733 15.449 30.1612 15.6423Z" fill="white"/>
<path d="M24.5648 21.3496C20.533 25.3629 20.1556 25.7219 19.8795 25.7219C19.6033 25.7219 19.4192 25.5747 18.3054 24.4793C17.1456 23.3378 17.0167 23.2366 16.7037 23.2366C16.2159 23.2366 15.9121 23.5588 15.9121 24.0835C15.9121 24.4701 15.9397 24.4977 17.6887 26.2466C19.456 28.0232 19.4652 28.0232 19.8703 28.0232H20.2845L25.1815 23.1169L30.0878 18.2199V17.8241C30.0878 17.2994 29.784 16.9772 29.287 16.9772C28.9556 16.9772 28.7899 17.1337 24.5648 21.3496Z" fill="white"/>
<path d="M13.4724 11.4814C13.3435 11.8312 12.8832 13.709 12.9201 13.7367C12.9569 13.7827 14.8255 12.0429 14.8807 11.9141C14.8899 11.8772 14.5862 11.7392 14.2088 11.6103C13.7025 11.4446 13.5 11.4078 13.4724 11.4814Z" fill="white"/>
<path d="M31.7637 11.6289C31.4047 11.7577 31.1101 11.8866 31.1194 11.9234C31.1746 12.0339 33.0432 13.7828 33.08 13.746C33.126 13.6908 32.5829 11.5184 32.5001 11.4448C32.4633 11.4079 32.1319 11.4908 31.7637 11.6289Z" fill="white"/>
<path d="M1.02789 24.1477C1.34086 28.8699 3.34755 33.5368 6.68896 37.3201L7.04796 37.7251L7.93164 36.9335C9.00862 35.9761 10.1777 35.1661 11.3099 34.5954C11.9726 34.264 12.1383 34.1351 12.0923 34.0155C11.8898 33.5 11.2915 30.8674 11.0797 29.5879C10.9325 28.6582 10.7023 27.6364 10.4814 26.9645C10.0948 25.7586 9.88309 24.8197 9.78184 23.8532L9.71741 23.2364H5.34503H0.972656L1.02789 24.1477Z" fill="white"/>
<path d="M36.2168 23.8532C36.1155 24.8197 35.9038 25.7586 35.5172 26.9645C35.2963 27.6272 35.0661 28.6674 34.9189 29.5695C34.7164 30.849 34.1088 33.5276 33.9063 34.0155C33.8603 34.1351 34.0076 34.2456 34.5691 34.5218C35.6277 35.0464 37.0176 36.0038 38.0394 36.9151L38.9507 37.7251L39.3097 37.3201C42.6511 33.5368 44.6301 28.9343 44.9615 24.1753L45.026 23.2364H40.6536H36.2812L36.2168 23.8532Z" fill="white"/>
<path d="M12.9033 31.3922C12.9309 31.4934 13.069 31.9997 13.2071 32.5336C13.3452 33.0675 13.4648 33.5277 13.4832 33.5646C13.52 33.6198 14.7903 33.224 14.8916 33.1227C14.9284 33.0859 13.0782 31.3093 12.9493 31.2541C12.8941 31.2357 12.8757 31.3001 12.9033 31.3922Z" fill="white"/>
<path d="M32.0305 32.1742C31.5058 32.6805 31.0916 33.1039 31.11 33.1223C31.2572 33.2236 32.4907 33.6102 32.5183 33.5549C32.5459 33.5181 32.6656 33.0579 32.8037 32.5332C32.9326 31.9993 33.0614 31.493 33.089 31.401C33.1167 31.3181 33.1075 31.2445 33.0614 31.2445C33.0246 31.2537 32.5552 31.6679 32.0305 32.1742Z" fill="white"/>
<path d="M16.3278 34.2548C15.8031 34.3837 14.1094 34.9544 14.0357 35.0281C13.9253 35.1201 14.5788 36.7586 15.2416 38.0657C17.0642 41.6649 19.4022 43.8741 22.0164 44.4448L22.265 44.5V40.1552V35.8013L21.1788 35.6448C19.8901 35.4607 18.8039 35.1569 17.6441 34.6414C16.6683 34.218 16.5855 34.1904 16.3278 34.2548Z" fill="white"/>
<path d="M28.974 34.3745C27.8786 34.9544 26.0652 35.4975 24.6384 35.6816L23.7363 35.7921V40.146V44.5L23.9941 44.4448C26.1849 43.9661 28.0351 42.4749 29.7932 39.787C30.6953 38.3879 32.1589 35.2029 31.9656 35.0281C31.8735 34.936 30.0141 34.3285 29.5815 34.2456C29.3974 34.218 29.1949 34.2548 28.974 34.3745Z" fill="white"/>
<path d="M11.6887 36.0313C11.2193 36.2799 10.5565 36.6849 10.2252 36.9242C9.59921 37.366 8.18164 38.664 8.18164 38.7928C8.18164 38.8941 9.95821 40.2932 10.8051 40.8547C11.7624 41.4899 12.9867 42.1711 14.0452 42.6405C14.9013 43.0271 16.7883 43.6899 17.3866 43.8095C17.7088 43.874 17.6996 43.8648 16.9632 43.11C16.5582 42.6865 16.0335 42.079 15.7942 41.766C14.8277 40.4957 13.7138 38.4522 12.9682 36.5836C12.7565 36.0497 12.5724 35.6079 12.5632 35.5987C12.554 35.5895 12.1674 35.7828 11.6887 36.0313Z" fill="white"/>
<path d="M33.0788 36.4732C32.0018 39.2255 30.6671 41.4255 29.0378 43.11C28.3014 43.8648 28.2922 43.874 28.6144 43.8095C29.2311 43.6807 31.1089 43.0179 32.0294 42.6129C33.0972 42.1342 34.2571 41.4807 35.2328 40.8363C36.052 40.284 37.8194 38.8941 37.8194 38.7928C37.8194 38.756 37.4696 38.3878 37.037 37.9828C36.1901 37.1819 35.1131 36.4271 34.0822 35.9117L33.4286 35.5803L33.0788 36.4732Z" fill="white"/>
</svg>
