<svg width="42" height="45" viewBox="0 0 42 45" fill="none" xmlns="http://www.w3.org/2000/svg">
<path d="M17.227 3.13011C17.227 5.41319 17.1995 6.12838 17.1169 6.18339C17.0528 6.22007 16.7135 6.27508 16.3651 6.30259L15.7324 6.34844L17.0986 7.87966C17.8505 8.71404 18.4831 9.41089 18.5106 9.41089C18.5381 9.41089 19.1708 8.71404 19.9227 7.87966L21.2888 6.34844L20.6562 6.30259C20.3078 6.27508 19.9685 6.22007 19.9135 6.18339C19.8218 6.12838 19.7943 5.41319 19.7943 3.13011V0.159345H18.5106H17.227V3.13011Z" fill="white"/>
<path d="M1.9145 11.6482C1.9145 13.8304 1.887 14.6373 1.80448 14.7198C1.74029 14.784 1.42855 14.8299 1.06178 14.8299C0.695024 14.8299 0.44746 14.8665 0.465798 14.9216C0.520813 15.0866 3.13398 17.9565 3.20734 17.929C3.29903 17.8923 5.94887 14.9491 5.94887 14.8849C5.94887 14.8574 5.66463 14.8299 5.32538 14.8299C4.95862 14.8299 4.65604 14.784 4.59186 14.7198C4.50934 14.6373 4.48183 13.8304 4.48183 11.6482V8.68663H3.19817H1.9145V11.6482Z" fill="white"/>
<path d="M32.5393 11.6482C32.5393 13.8304 32.5118 14.6373 32.4293 14.7198C32.3651 14.784 32.0625 14.8299 31.6958 14.8299C31.3565 14.8299 31.0723 14.8574 31.0723 14.8849C31.0723 14.9491 33.7221 17.8923 33.8138 17.929C33.8872 17.9565 36.5003 15.0866 36.5553 14.9216C36.5737 14.8665 36.3261 14.8299 35.9594 14.8299C35.5926 14.8299 35.2808 14.784 35.2167 14.7198C35.1341 14.6373 35.1066 13.8304 35.1066 11.6482V8.68663H33.823H32.5393V11.6482Z" fill="white"/>
<path d="M15.8061 11.5748C12.6153 12.024 10.2222 12.996 8.95683 14.3438C8.315 15.0406 8.11328 15.4899 8.11328 16.251C8.11328 17.067 8.40669 17.6447 9.20439 18.3873C9.89207 19.0292 10.5431 19.4143 11.68 19.8819C13.578 20.6704 15.8703 21.0647 18.511 21.0647C21.1516 21.0647 23.4439 20.6704 25.3419 19.8819C26.4788 19.4143 27.1298 19.0292 27.8175 18.3873C28.5969 17.6722 28.9086 17.067 28.9086 16.2968C28.9086 15.5358 28.6794 14.9948 28.0376 14.3255C26.8914 13.106 24.7917 12.1983 22.0043 11.694C20.6107 11.4464 17.1906 11.3822 15.8061 11.5748ZM18.731 12.2899C18.8319 12.3633 18.9144 12.5742 18.9419 12.8401C18.9877 13.2344 19.0152 13.271 19.2353 13.271C19.3637 13.271 19.7304 13.3902 20.0422 13.5369C20.8582 13.922 21.3258 14.6922 20.9407 15.0131C20.7299 15.1874 20.3814 15.0498 20.2531 14.7472C20.1339 14.4538 19.5379 14.0962 19.1711 14.0962C18.9786 14.0962 18.9694 14.1329 18.9694 15.0315V15.9759L19.5012 16.1318C20.8124 16.5169 21.4359 17.5071 20.9041 18.3782C20.7023 18.7083 20.088 19.0934 19.6112 19.185C19.0152 19.2951 18.9969 19.3134 18.9419 19.7077C18.8961 20.0469 18.6943 20.3312 18.511 20.3312C18.3092 20.3312 18.1167 20.0378 18.08 19.6802C18.0342 19.2676 18.0342 19.2676 17.5574 19.1575C16.4479 18.9008 15.5402 17.7363 16.1545 17.3604C16.3562 17.232 16.5763 17.3604 16.7688 17.7272C16.9155 17.9931 17.5849 18.4057 17.8875 18.4057C18.0342 18.4057 18.0525 18.3048 18.0525 17.5071V16.6086L17.5299 16.4435C16.6038 16.1684 16.0353 15.5725 16.0353 14.8939C16.0353 14.1237 16.7138 13.4636 17.6674 13.3077C18.025 13.2527 18.0342 13.2435 18.08 12.8309C18.1167 12.4642 18.3092 12.1707 18.511 12.1707C18.5385 12.1707 18.6393 12.2258 18.731 12.2899Z" fill="white"/>
<path d="M17.3644 14.2431C17.2177 14.3256 17.0343 14.454 16.9793 14.5365C16.8051 14.7474 16.8326 15.1417 17.0251 15.3159C17.1902 15.4718 17.7953 15.7468 17.9604 15.7468C18.0154 15.7468 18.052 15.4259 18.052 14.9216C18.052 14.1239 18.0429 14.0964 17.8503 14.0964C17.7311 14.1056 17.5202 14.1698 17.3644 14.2431Z" fill="white"/>
<path d="M18.9688 17.6629V18.4973L19.2255 18.4423C20.0048 18.2773 20.3258 17.9838 20.2341 17.5162C20.2066 17.342 19.6381 16.9936 19.2255 16.8927L18.9688 16.8286V17.6629Z" fill="white"/>
<path d="M8.07625 19.7078C8.10376 20.8172 8.1221 20.9731 8.36049 21.4499C9.13069 23.0178 11.6247 24.3106 15.0997 24.9341C16.0991 25.1083 16.5759 25.145 18.5106 25.145C20.4544 25.145 20.9129 25.1083 21.9398 24.925C25.3874 24.3106 27.8905 23.0178 28.6607 21.4499C28.8991 20.9731 28.9174 20.8264 28.9449 19.7078C28.9816 18.5066 28.9174 18.2499 28.6882 18.6717C28.5323 18.9651 27.2212 19.9003 26.3868 20.3038C24.2137 21.3674 21.6189 21.89 18.4923 21.89C14.2195 21.89 10.5886 20.8081 8.56221 18.9101C8.31465 18.6809 8.09459 18.4975 8.07625 18.4975C8.05792 18.4975 8.05792 19.0476 8.07625 19.7078Z" fill="white"/>
<path d="M8.05859 23.6596C8.05859 24.879 8.19613 25.4108 8.65458 26.0343C10.1125 28.0148 14.5961 29.4269 18.9881 29.3077L20.1434 29.271L20.8677 28.5742C21.2712 28.1891 21.8855 27.7031 22.2339 27.5014C23.6093 26.6853 25.7731 25.9702 27.5519 25.7409C28.6614 25.5942 28.7347 25.5576 28.8631 25.0624C28.9731 24.5948 29.0006 22.6235 28.8906 22.6235C28.8539 22.6235 28.6522 22.7885 28.4597 22.9994C27.4144 24.0722 25.3422 25.0533 23.0408 25.5576C20.2534 26.1627 16.7692 26.1627 13.9726 25.5576C11.6712 25.0533 9.60816 24.0813 8.56289 22.9994C8.37034 22.7885 8.16862 22.6235 8.13195 22.6235C8.09527 22.6235 8.05859 23.0911 8.05859 23.6596Z" fill="white"/>
<path d="M28.7813 26.392C24.0042 26.878 20.4375 28.9135 20.4375 31.1508C20.4375 33.0579 22.9773 34.8275 26.81 35.5977C31.9079 36.6155 37.7578 35.5886 40.2151 33.2321C40.9761 32.5078 41.2512 31.9485 41.2512 31.1599C41.2512 30.3897 41.0403 29.9313 40.4076 29.2619C39.8208 28.6385 39.3899 28.3359 38.4363 27.8591C37.1801 27.2356 35.6581 26.7863 33.916 26.5204C32.7332 26.3462 29.9549 26.2728 28.7813 26.392ZM31.1469 27.2264C31.2111 27.2906 31.2569 27.5107 31.2569 27.7215C31.2569 28.0883 31.2661 28.1066 31.6054 28.1708C32.1738 28.2717 32.8707 28.6385 33.1091 28.9594C33.4575 29.427 33.5034 29.6379 33.2741 29.8671C33.0449 30.0963 32.7973 30.0046 32.5956 29.6012C32.4489 29.3353 32.0271 29.0786 31.5412 28.9869L31.2569 28.9227V29.8854V30.839L31.8163 31.0132C32.8524 31.3158 33.5125 32.0218 33.4208 32.737C33.3383 33.4338 32.6048 34.0207 31.6696 34.149L31.2569 34.204V34.58C31.2569 35.0109 31.1377 35.1851 30.826 35.1851C30.5784 35.1851 30.4317 34.9376 30.4317 34.5158C30.4317 34.2132 30.4134 34.204 29.9091 34.0573C29.2489 33.874 28.873 33.6356 28.5704 33.2413C28.2312 32.792 28.1945 32.5628 28.4054 32.3519C28.6438 32.1135 28.9005 32.196 29.0839 32.572C29.2306 32.8837 29.6707 33.1679 30.1842 33.2963L30.4317 33.3513V32.4436V31.5359L29.8357 31.3341C29.1114 31.0957 28.7171 30.784 28.4879 30.2614C28.2862 29.8121 28.3595 29.3445 28.6988 28.9135C28.928 28.6293 29.6065 28.2717 30.0925 28.18C30.4042 28.125 30.4317 28.0975 30.4317 27.7949C30.4317 27.6207 30.4776 27.3915 30.5234 27.2906C30.6335 27.0981 30.9819 27.0614 31.1469 27.2264Z" fill="white"/>
<path d="M29.9259 29.051C29.5866 29.1519 29.3941 29.3078 29.2565 29.5645C29.0365 29.9679 29.4032 30.3805 30.1734 30.6098L30.4302 30.6831V29.812C30.4302 28.886 30.4393 28.8951 29.9259 29.051Z" fill="white"/>
<path d="M31.2559 32.5351V33.3787L31.641 33.3145C32.3653 33.1953 32.8054 32.7368 32.567 32.3517C32.457 32.1775 31.861 31.8383 31.5126 31.7557L31.2559 31.7007V32.5351Z" fill="white"/>
<path d="M8.07558 27.9597C8.10308 29.0784 8.13059 29.2159 8.35981 29.6652C9.46927 31.7924 13.5311 33.3328 18.1432 33.3786L19.5644 33.397L19.6102 31.8841C19.6377 31.0497 19.6836 30.3254 19.7202 30.2703C19.7661 30.197 19.2801 30.1511 18.024 30.1145C17.052 30.087 15.8509 29.9953 15.3466 29.9127C12.4217 29.4543 10.0836 28.5191 8.71741 27.2537C8.41483 26.9787 8.13976 26.7494 8.10308 26.7494C8.06641 26.7494 8.05724 27.2996 8.07558 27.9597Z" fill="white"/>
<path d="M8.07574 32.0218C8.11241 33.1863 8.13992 33.3513 8.35081 33.7731C8.75425 34.5341 9.73533 35.3685 10.9365 35.9553C13.2379 37.0831 15.6952 37.5416 19.0877 37.4866L19.6104 37.4774V35.8912V34.2957L18.0333 34.2407C13.7239 34.0757 10.478 33.0304 8.52502 31.1966L8.03906 30.7382L8.07574 32.0218Z" fill="white"/>
<path d="M20.4375 34.6166C20.4375 35.7535 20.4467 35.8177 20.7217 36.3587C21.5561 38.0366 24.3343 39.3936 28.0203 39.9163C29.3223 40.0996 32.0913 40.1272 33.3658 39.9621C35.6489 39.6687 37.6661 39.0544 39.124 38.1925C39.4082 38.0274 39.94 37.5965 40.2976 37.2481C41.1412 36.4137 41.2512 36.102 41.2512 34.5707V33.4338L40.7194 33.883C38.638 35.6618 35.5939 36.6429 31.6237 36.808C27.3051 36.9822 22.7939 35.7169 20.9418 33.8189C20.7492 33.608 20.5475 33.4429 20.5109 33.4429C20.4742 33.4429 20.4375 33.9747 20.4375 34.6166Z" fill="white"/>
<path d="M8.06657 36.111C8.10325 37.2388 8.12158 37.3855 8.35998 37.8623C8.81843 38.7976 10.1021 39.7878 11.6333 40.4021C13.6688 41.209 15.3743 41.5208 18.2167 41.5758C20.5273 41.6308 20.5089 41.6308 20.1513 41.1357C19.8029 40.6405 19.6104 39.9254 19.6104 39.0726V38.2749L19.0694 38.33C18.3267 38.3941 16.0528 38.2474 15.0075 38.0732C12.156 37.5873 10.0654 36.6979 8.52502 35.3133L8.03906 34.8732L8.06657 36.111Z" fill="white"/>
<path d="M20.4375 38.5868C20.4375 39.898 20.5109 40.2281 20.9326 40.8424C21.9596 42.3461 24.7103 43.5564 28.1853 44.0424C29.5882 44.2349 32.9716 44.1799 34.2369 43.9507C37.7761 43.2997 40.1784 42.0619 40.9669 40.4848C41.242 39.9438 41.2512 39.8796 41.2512 38.6877V37.459L40.8202 37.89C38.8947 39.7879 35.2363 40.8974 30.8902 40.9066C28.9739 40.9066 27.9561 40.8057 26.3424 40.4481C23.9767 39.9255 22.2071 39.1186 21.0151 37.9908L20.4375 37.459V38.5868Z" fill="white"/>
</svg>
