<svg width="16" height="16" viewBox="0 0 16 16" fill="none" xmlns="http://www.w3.org/2000/svg">
<path id="Vector" d="M13.3927 0.858579L13.2513 0.717174L13.1098 0.858562L8.00002 5.96717L2.89142 0.858579L2.75 0.717157L2.60858 0.858579L0.858579 2.60858L0.717157 2.75L0.858579 2.89142L5.96716 8L0.858579 13.1086L0.717157 13.25L0.858579 13.3914L2.60858 15.1414L2.75 15.2828L2.89142 15.1414L8.00002 10.0328L13.1098 15.1414L13.2513 15.2828L13.3927 15.1414L15.1427 13.3914L15.2841 13.25L15.1427 13.1086L10.0341 8L15.1427 2.89142L15.2841 2.75L15.1427 2.60858L13.3927 0.858579Z" fill="#FF0000" stroke="#FF0000" stroke-width="0.4"/>
</svg>
