<svg width="35" height="45" viewBox="0 0 35 45" fill="none" xmlns="http://www.w3.org/2000/svg">
<path d="M15.0019 1.03566C10.494 2.00027 7.02715 5.48626 6.11984 9.97505C5.84287 11.3121 5.84287 13.2796 6.11984 14.6167C7.04625 19.201 10.7423 22.8111 15.3171 23.6134C16.5587 23.8235 18.507 23.8044 19.7008 23.5561C24.2087 22.6392 27.7234 19.1246 28.6402 14.6167C28.9172 13.2796 28.9172 11.3121 28.6402 9.97505C27.7711 5.67727 24.5526 2.29634 20.2452 1.14072C19.4716 0.940155 19.0896 0.901953 17.6188 0.873301C16.1671 0.844648 15.7564 0.873301 15.0019 1.03566ZM17.7812 4.86547C17.8671 4.93232 18.4402 5.83008 19.0514 6.852C19.6722 7.87391 20.1879 8.74302 20.207 8.77167C20.2357 8.82898 19.1565 9.52617 19.0609 9.52617C19.0418 9.52617 18.6694 8.92448 18.23 8.18909C17.7907 7.45369 17.3991 6.852 17.3705 6.852C17.2559 6.852 15.7469 9.34471 15.8042 9.43067C15.8328 9.47842 16.1002 9.65033 16.3963 9.82224C16.6924 9.99415 17.0171 10.2138 17.1126 10.3093C17.3323 10.529 17.3323 11.0065 17.1126 11.2262C16.9025 11.4363 13.1205 12.9644 12.8148 12.9644C12.471 12.9644 12.2513 12.802 12.1367 12.4773C11.9935 12.0762 11.9935 8.69527 12.1367 8.29414C12.3564 7.67335 12.7862 7.6638 13.7508 8.23684C14.3047 8.56156 14.4862 8.63797 14.5721 8.54246C14.6295 8.4756 15.1643 7.65425 15.7469 6.70874C16.339 5.76322 16.893 4.93232 16.9789 4.86547C17.0649 4.80816 17.2463 4.75086 17.38 4.75086C17.5137 4.75086 17.6952 4.80816 17.7812 4.86547ZM22.6233 10.8824C23.7026 11.3121 24.6576 11.7419 24.7531 11.8374C24.9823 12.0666 24.9728 12.5346 24.7436 12.7638C24.6385 12.8689 24.2756 13.1172 23.9222 13.3178C23.5784 13.5088 23.3205 13.7285 23.3396 13.7858C23.3587 13.8431 23.9031 14.674 24.5335 15.629C25.67 17.3481 25.8037 17.6347 25.5936 18.0262C25.4217 18.351 24.9728 18.4083 22.6711 18.4083H20.4362V17.6442V16.8802H22.0598H23.6835L22.9003 15.6863C22.461 15.0369 22.0694 14.4925 22.0312 14.4925C21.9834 14.4925 21.6587 14.6644 21.3053 14.8745C20.4171 15.3998 19.9874 15.3712 19.7772 14.7695C19.6435 14.3779 19.634 10.9683 19.7677 10.6054C19.9014 10.2711 20.1211 10.0992 20.4267 10.0992C20.5604 10.0992 21.5537 10.4526 22.6233 10.8824ZM12.0317 13.8813C12.5761 14.206 12.6047 14.2442 12.4806 14.4352C12.1081 15.0273 11.0766 16.7751 11.0766 16.8229C11.0766 16.8515 11.812 16.8802 12.7002 16.8802H14.3238V16.1734C14.3238 15.0751 14.5339 14.6835 15.1261 14.6835C15.4604 14.6835 18.698 17.0998 18.7744 17.415C18.8031 17.5392 18.8031 17.7493 18.7744 17.8734C18.698 18.1886 15.4604 20.6049 15.1261 20.6049C14.5339 20.6049 14.3238 20.2133 14.3238 19.115V18.4083H12.089C9.3766 18.4083 9.07098 18.3319 9.07098 17.6347C9.07098 17.4532 11.3154 13.5374 11.4204 13.5374C11.43 13.5374 11.707 13.6903 12.0317 13.8813Z" fill="white"/>
<path d="M13.5586 10.5195V11.2358L14.2462 10.9493C14.6187 10.7965 14.9434 10.6533 14.9625 10.6341C15.0007 10.5959 13.7019 9.8128 13.6159 9.8128C13.5872 9.8128 13.5586 10.128 13.5586 10.5195Z" fill="white"/>
<path d="M21.1992 12.5442C21.1992 12.9358 21.2279 13.251 21.2565 13.251C21.3425 13.251 22.6414 12.4678 22.6032 12.4296C22.5841 12.4105 22.2593 12.2673 21.8869 12.1145L21.1992 11.8279V12.5442Z" fill="white"/>
<path d="M15.8516 17.6442C15.8516 18.0644 15.8707 18.4082 15.8993 18.4082C15.9853 18.4082 16.9021 17.7015 16.9021 17.6442C16.9021 17.5868 15.9853 16.8801 15.8993 16.8801C15.8707 16.8801 15.8516 17.2239 15.8516 17.6442Z" fill="white"/>
<path d="M2.73797 19.1913C0.359861 19.9936 -0.0985698 20.1751 0.0160379 20.2801C0.0828923 20.347 0.952 20.9773 1.93572 21.6841L3.74079 22.9734L5.85148 22.2666C7.01665 21.8751 8.02902 21.5408 8.09587 21.5121C8.19138 21.4739 8.10543 21.3211 7.80936 20.9773C7.25542 20.3279 6.52957 19.325 6.18575 18.7138C6.01384 18.4177 5.83237 18.2172 5.74642 18.2267C5.65091 18.2267 4.30427 18.6661 2.73797 19.1913Z" fill="white"/>
<path d="M28.5723 18.7138C28.2285 19.325 27.5026 20.3279 26.9487 20.9773C26.6526 21.3211 26.5667 21.4739 26.6622 21.5121C26.729 21.5408 27.7414 21.8751 28.9066 22.2666L31.0173 22.9734L32.8224 21.6841C33.8061 20.9773 34.6752 20.347 34.742 20.2801C34.8566 20.1751 34.3982 19.9936 31.9723 19.1818C30.3869 18.6565 29.0308 18.2172 28.9639 18.2172C28.9066 18.2172 28.7251 18.4464 28.5723 18.7138Z" fill="white"/>
<path d="M7.76144 23.1263C6.79682 23.4414 6.01367 23.7279 6.01367 23.7566C6.01367 23.7852 8.57324 24.6544 11.6963 25.6954L17.3789 27.5959L23.0616 25.6954C26.1846 24.6544 28.7442 23.7852 28.7442 23.7566C28.7442 23.7279 27.961 23.4414 26.9964 23.1263L25.2486 22.5437L24.6374 22.9639C21.266 25.256 17.016 25.8291 13.1671 24.5111C12.3362 24.2246 10.9896 23.5465 10.1682 22.9925L9.49965 22.5437L7.76144 23.1263Z" fill="white"/>
<path d="M1.93608 25.829C0.952366 26.5358 0.0832581 27.1661 0.0164036 27.233C-0.098204 27.338 0.885511 27.7009 5.89959 29.3723L11.9165 31.3779L13.7216 30.0886C14.7053 29.3818 15.5744 28.7515 15.6412 28.6847C15.7558 28.5796 14.7721 28.2167 9.75805 26.5453L3.74115 24.5397L1.93608 25.829Z" fill="white"/>
<path d="M24.9917 26.5453C19.9776 28.2167 19.0034 28.5796 19.118 28.6847C19.1849 28.7515 20.054 29.3818 21.0377 30.0886L22.8428 31.3779L28.8501 29.3723C32.1547 28.274 34.8384 27.338 34.8097 27.2903C34.762 27.2234 31.3524 24.7498 31.0945 24.6065C31.0372 24.5683 28.2866 25.447 24.9917 26.5453Z" fill="white"/>
<path d="M14.4379 31.3112C12.9575 32.3617 12.2221 32.8297 12.0407 32.8297C11.907 32.8297 10.121 32.2758 8.08672 31.5977L4.39062 30.3657V35.5994V40.8332L10.4648 42.8579C13.798 43.9753 16.5486 44.8635 16.5772 44.8444C16.5963 44.8158 16.6059 41.4253 16.5963 37.2994L16.5677 29.7926L14.4379 31.3112Z" fill="white"/>
<path d="M18.1445 37.309C18.1445 41.4635 18.1732 44.8635 18.2114 44.8635C18.2591 44.8635 21.0097 43.9562 24.3238 42.8483L30.3693 40.8332V35.5994V30.3657L26.6732 31.5977C24.639 32.2758 22.853 32.8297 22.7193 32.8297C22.5378 32.8297 21.8788 32.419 20.6086 31.5117C19.5962 30.7954 18.6221 30.0982 18.4597 29.9836L18.1445 29.764V37.309Z" fill="white"/>
</svg>
